<svg width="20" height="20" viewBox="0 0 20 20" fill="none" xmlns="http://www.w3.org/2000/svg">
<path fill-rule="evenodd" clip-rule="evenodd" d="M0 10C0 15.5229 4.47745 20 10 20C15.5225 20 20 15.5229 20 10C20 4.47779 15.5222 0 10 0C4.47779 0 0 4.47779 0 10ZM1.5 10C1.5 5.30621 5.30621 1.5 10 1.5C14.6938 1.5 18.5 5.30621 18.5 10C18.5 14.6944 14.6941 18.5 10 18.5C5.30586 18.5 1.5 14.6944 1.5 10ZM7.95572 13.0237C7.73723 13.3168 7.76054 13.7335 8.02623 14.0004C8.31849 14.2939 8.79336 14.2949 9.08689 14.0027L12.5729 10.5317L12.6459 10.4474C12.8649 10.1534 12.8405 9.73523 12.5729 9.46873L9.08689 5.99773L9.00261 5.92529C8.70853 5.70807 8.29192 5.73317 8.02623 6.00001L7.95379 6.08429C7.73657 6.37837 7.76167 6.79498 8.02851 7.06067L10.98 10.0012L8.02851 12.9397L7.95572 13.0237Z" fill="#B3B3B3" />
</svg>
