<svg width="12" height="12" viewBox="0 0 12 12" fill="none" xmlns="http://www.w3.org/2000/svg">
<path fill-rule="evenodd" clip-rule="evenodd" d="M8.6004 0H3.399C1.36046 0 0 1.45956 0 3.5496V8.4504C0 10.5424 1.35682 12 3.399 12H8.5998C10.6426 12 12 10.5424 12 8.4504V3.5496C12 1.4577 10.6427 0 8.6004 0ZM3.399 0.9H8.6004C10.1307 0.9 11.1 1.94098 11.1 3.5496V8.4504C11.1 10.0591 10.1306 11.1 8.5998 11.1H3.399C1.86886 11.1 0.9 10.0592 0.9 8.4504V3.5496C0.9 1.94302 1.8722 0.9 3.399 0.9ZM6.00014 3.27246C6.24867 3.27246 6.45014 3.47393 6.45014 3.72246C6.45014 3.95028 6.28085 4.13856 6.0612 4.16835L5.99414 4.17246C5.74561 4.17246 5.54414 3.97099 5.54414 3.72246C5.54414 3.49464 5.71343 3.30637 5.93308 3.27657L6.00014 3.27246ZM5.99414 5.17614C6.22196 5.17614 6.41024 5.34543 6.44003 5.56507L6.44414 5.62613V8.27754C6.44414 8.52606 6.24267 8.72754 5.99414 8.72754C5.76632 8.72754 5.57805 8.55824 5.54825 8.3386L5.54414 8.27754V5.62613C5.54414 5.37761 5.74561 5.17614 5.99414 5.17614Z" fill="white"/>
</svg>
