<svg width="194" height="25" viewBox="0 0 194 25" fill="none" xmlns="http://www.w3.org/2000/svg">
<path d="M18.3768 21.6556V6.41138H14.7055H14.5522H10.1309L8.02913 14.2334C7.75794 15.2809 7.39259 16.8345 7.35804 17.5114C7.31559 16.834 6.94437 15.2864 6.6655 14.2318L4.59579 6.41112H0L4.93472 21.6604H9.74953L14.5524 6.88314V21.6553H18.3773L18.3768 21.6555L18.3768 21.6556ZM16.4647 0.462219C16.0379 0.467261 15.6679 0.561441 15.349 0.738574C15.0356 0.921207 14.7834 1.17167 14.6088 1.48469C14.4289 1.80275 14.3417 2.15747 14.3365 2.55917C14.3417 2.95056 14.4291 3.30024 14.5987 3.60799C14.7732 3.92078 15.0148 4.16597 15.3287 4.3486C15.6421 4.52619 16.0124 4.62015 16.4338 4.62496C16.8759 4.61992 17.2616 4.52596 17.5856 4.3486C17.9042 4.16597 18.1512 3.92101 18.3258 3.60799C18.5003 3.30024 18.5934 2.95056 18.5934 2.55917C18.583 2.15747 18.4904 1.80274 18.3156 1.48469C18.1406 1.17167 17.899 0.921207 17.5856 0.738574C17.2717 0.561441 16.8967 0.467031 16.4647 0.462219H16.4647ZM19.8944 21.6556H23.6884V14.1727C23.6884 13.9539 23.7038 13.7451 23.7245 13.5414C23.7505 13.3432 23.7812 13.1553 23.8119 12.9832C23.9251 12.4044 24.136 11.8984 24.4392 11.4653C24.7427 11.0269 25.1232 10.6873 25.591 10.4424C26.0584 10.1974 26.5986 10.0773 27.2053 10.0723C27.4368 10.0723 27.6377 10.0856 27.817 10.1087C27.997 10.1321 28.1058 10.155 28.26 10.1864V6.41162C28.1087 6.41162 28.0342 6.41368 27.889 6.41781C27.1599 6.43935 26.49 6.48518 25.8071 6.79568C25.2792 7.03583 24.7881 7.40201 24.3575 7.88093C23.9214 8.36513 23.7272 8.64103 23.319 9.32274H23.1955L23.072 6.41185H19.7716C19.8025 6.86557 19.8281 7.34564 19.8434 7.84106C19.8637 8.33144 19.8744 8.86857 19.8845 9.43755C19.8897 10.0116 19.8947 10.6427 19.8947 11.3262V21.6561L19.8945 21.6556L19.8944 21.6556ZM41.7699 6.41138H37.9762V15.6141C37.9762 15.8331 37.9554 16.0421 37.9141 16.2456C37.873 16.4438 37.8217 16.6317 37.7598 16.8038C37.6262 17.1322 37.4308 17.4558 37.1689 17.7688C36.9067 18.0818 36.5827 18.3428 36.197 18.5513C35.8116 18.755 35.3643 18.8643 34.8605 18.8698C34.1971 18.8646 33.6577 18.6923 33.241 18.3536C32.8299 18.0142 32.5259 17.5339 32.3362 16.9134C32.1466 16.2931 32.0535 15.557 32.0535 14.7066V6.41163H28.2596V15.3638C28.2596 16.6033 28.4097 17.6503 28.6915 18.4995C28.9729 19.3485 29.3651 20.0335 29.8531 20.55C30.3417 21.061 30.9022 21.4313 31.524 21.6611C32.1513 21.8907 32.8093 22.0053 33.5032 21.9998C34.1716 21.9948 34.7729 21.9061 35.2972 21.739C35.8217 21.5669 36.279 21.3479 36.6751 21.0818C37.0657 20.8107 37.3945 20.5236 37.6672 20.2159C37.9396 19.9132 38.1557 19.621 38.3148 19.3396H38.3765L38.5617 21.6559H41.8929C41.862 21.0296 41.8313 20.3412 41.811 19.5793C41.7854 18.8229 41.7696 17.9931 41.7696 17.0857V6.4114H41.7699L41.7699 6.41138ZM42.3931 20.9042C42.9533 21.2228 43.6269 21.4835 44.4084 21.687C45.1897 21.8905 46.0432 21.9948 46.9582 21.9998C48.2846 21.9895 49.4054 21.781 50.31 21.3685C51.2148 20.9565 51.904 20.3932 52.3664 19.6783C52.8291 18.9581 53.0655 18.1391 53.0655 17.2104C53.0553 16.4642 52.9063 15.7967 52.6132 15.2225C52.3253 14.6436 51.8832 14.1377 51.297 13.6993C50.7061 13.2612 49.9605 12.8748 49.0559 12.5465C48.4234 12.3219 47.9095 12.1081 47.5238 11.9046C47.1384 11.7014 46.8609 11.4818 46.6911 11.2474C46.5161 11.0125 46.4289 10.7362 46.4341 10.4177C46.4341 9.93759 46.6141 9.55697 46.9738 9.2648C47.3337 8.97768 47.8531 8.82644 48.5316 8.82139C48.9789 8.82644 49.4005 8.87341 49.8015 8.96232C50.2023 9.05627 50.5677 9.17085 50.8912 9.30146C51.2205 9.43712 51.4928 9.56728 51.7084 9.69789L52.4488 6.97444C52.0119 6.72925 51.4465 6.5205 50.7625 6.34313C50.0738 6.166 49.3131 6.07709 48.4699 6.06678C47.5959 6.07182 46.8094 6.19212 46.1153 6.43709C45.4162 6.67701 44.82 7.01592 44.3264 7.44901C43.8328 7.88738 43.4526 8.39334 43.1904 8.97263C42.9283 9.55146 42.7996 10.1777 42.7946 10.856C42.7842 11.4509 42.9181 12.0245 43.2006 12.5724C43.4835 13.1203 43.9356 13.6209 44.5475 14.0852C45.159 14.5495 45.9558 14.9512 46.9275 15.3009C47.5392 15.5147 48.0276 15.7284 48.3927 15.937C48.7526 16.1512 49.0098 16.3806 49.169 16.6361C49.3233 16.8866 49.4005 17.184 49.3953 17.5232C49.4005 18.0344 49.2052 18.4414 48.8195 18.7438C48.4288 19.0516 47.8171 19.2081 46.9893 19.2134C46.5319 19.2081 46.059 19.1561 45.5806 19.0465C45.0978 18.942 44.645 18.8064 44.2131 18.6396C43.7863 18.4727 43.4266 18.3004 43.1335 18.1176L42.3933 20.9036L42.3931 20.9043V20.9042ZM63.6823 0.507587V8.07026H63.6207C63.3944 7.68941 63.0808 7.35049 62.685 7.04779C62.2842 6.75058 61.8111 6.51043 61.261 6.33834C60.706 6.16121 60.0837 6.0723 59.3948 6.06725C58.485 6.06725 57.6263 6.25516 56.8192 6.62019C56.0073 6.98546 55.2924 7.52281 54.6707 8.22196C54.0434 8.92613 53.555 9.77651 53.2003 10.7834C52.8455 11.785 52.6708 12.9276 52.6708 14.206C52.6757 15.3847 52.8453 16.4491 53.1694 17.404C53.4983 18.3587 53.9506 19.1776 54.5368 19.8612C55.123 20.55 55.8015 21.0766 56.5727 21.4416C57.3485 21.8124 58.1869 21.9948 59.0865 21.9999C59.8215 21.9948 60.5003 21.8853 61.1323 21.6612C61.7648 21.4366 62.3201 21.1236 62.8082 20.7116C63.2969 20.2996 63.6875 19.8142 63.9908 19.2452H64.0524L64.2066 21.6557H67.5996C67.5788 21.306 67.5585 20.899 67.5379 20.4295C67.5226 19.9652 67.507 19.4696 67.4968 18.9425C67.4815 18.421 67.4761 17.8939 67.4761 17.3671V0.507632H63.6821H63.6823V0.507587ZM63.6823 15.0508C63.6823 15.2543 63.6771 15.4472 63.6568 15.6351C63.636 15.823 63.6053 16.0054 63.559 16.1778C63.4308 16.736 63.2095 17.216 62.8907 17.623C62.572 18.0298 62.1916 18.3428 61.7388 18.5621C61.2917 18.7862 60.8085 18.8962 60.2894 18.9012C59.4873 18.8962 58.8036 18.6821 58.2432 18.2697C57.6829 17.8577 57.2611 17.2891 56.9683 16.5692C56.6752 15.8441 56.5259 15.0144 56.5259 14.0806C56.5259 13.3659 56.6086 12.7032 56.7779 12.0927C56.9423 11.4822 57.1839 10.9502 57.5079 10.4912C57.832 10.0372 58.2278 9.6825 58.7006 9.42654C59.1683 9.17104 59.7082 9.04569 60.3201 9.04088C60.8959 9.04592 61.4098 9.17104 61.8621 9.41096C62.3094 9.65638 62.6798 9.97994 62.9778 10.392C63.2709 10.7989 63.4764 11.2579 63.5895 11.7639C63.6205 11.9204 63.646 12.0877 63.6613 12.2648C63.6767 12.4369 63.6821 12.6039 63.6821 12.7657V15.0508H63.6823L63.6823 15.0508ZM72.6853 21.6556V6.41138H68.8604V21.6556H72.6853ZM70.773 0.462219C70.3462 0.462219 69.9741 0.558462 69.6573 0.738574C69.3421 0.91777 69.0917 1.17281 68.9169 1.48469C68.7385 1.80252 68.6446 2.15747 68.6446 2.55917C68.6446 2.95056 68.7369 3.30093 68.9067 3.60799C69.0806 3.92078 69.3224 4.16826 69.6368 4.3486C69.949 4.52757 70.3205 4.62496 70.7423 4.62496C71.1844 4.62496 71.5719 4.52894 71.8937 4.3486C72.2139 4.16964 72.4586 3.92009 72.6339 3.60799C72.8073 3.30001 72.9057 2.94964 72.9014 2.55917C72.8967 2.15816 72.7996 1.80206 72.6237 1.48469C72.4503 1.17167 72.208 0.919145 71.8937 0.738574C71.5814 0.559608 71.2047 0.462219 70.773 0.462219H70.773ZM87.0754 15.1134C87.1063 14.9413 87.1368 14.717 87.1627 14.4402C87.1831 14.1638 87.1989 13.8455 87.1989 13.4855C87.1989 12.8073 87.132 12.1239 86.9984 11.4301C86.8595 10.7309 86.6384 10.0632 86.3297 9.4266C86.0265 8.79048 85.6205 8.21646 85.1219 7.71553C84.6182 7.20957 84.0062 6.80787 83.2764 6.5157C82.5514 6.22331 81.6981 6.07207 80.7215 6.06703C79.76 6.07207 78.8861 6.21827 78.1098 6.5157C77.3335 6.80787 76.6498 7.21461 76.0586 7.73638C75.4672 8.25793 74.9738 8.86335 74.578 9.55698C74.1822 10.2456 73.8839 10.9919 73.6834 11.79C73.4831 12.5934 73.3801 13.4175 73.3801 14.2679C73.3853 15.4367 73.5603 16.4956 73.9047 17.4452C74.2542 18.3896 74.758 19.2033 75.4264 19.8818C76.0893 20.5601 76.9018 21.0816 77.8578 21.4467C78.8143 21.8119 79.904 21.9946 81.1223 21.9996C82.207 21.9946 83.1888 21.8953 84.0681 21.7127C84.9523 21.5301 85.7185 21.3007 86.3661 21.0292L85.8108 18.3685C85.2506 18.5876 84.6337 18.7599 83.9604 18.8797C83.292 18.9945 82.5209 19.0573 81.647 19.0573C81.0405 19.0573 80.4645 18.984 79.9248 18.8275C79.3797 18.6762 78.8915 18.4363 78.4648 18.118C78.038 17.8 77.6986 17.388 77.4416 16.8923C77.1896 16.3914 77.0458 15.8018 77.0203 15.1132H87.0758L87.0753 15.1134L87.0754 15.1134ZM77.0199 12.4214C77.0558 12.0247 77.1481 11.6074 77.2972 11.1796C77.4514 10.7465 77.6621 10.3448 77.9398 9.96924C78.2175 9.59916 78.5721 9.29095 78.9936 9.05653C79.415 8.82165 79.919 8.70158 80.5052 8.69654C81.1324 8.70158 81.6516 8.83219 82.063 9.07739C82.4742 9.32785 82.7928 9.64591 83.0245 10.0323C83.2555 10.4179 83.4151 10.8196 83.5025 11.2424C83.5951 11.6704 83.6312 12.0614 83.6206 12.4216H77.0199V12.4214L77.0199 12.4214Z" fill="black"/>
<path fill-rule="evenodd" clip-rule="evenodd" d="M90.8326 1.02255C89.1148 1.02255 87.7091 2.43824 87.7091 4.19991C87.7091 5.96232 89.1149 7.37795 90.8326 7.37795C92.551 7.37795 93.9567 5.96205 93.9567 4.19991C93.9567 2.43833 92.5508 1.02255 90.8326 1.02255ZM86.6865 4.19991C86.6865 1.88774 88.536 0 90.8326 0C93.1295 0 94.9793 1.88766 94.9793 4.19991C94.9793 6.51251 93.1299 8.4005 90.8326 8.4005C88.5359 8.4005 86.6865 6.5127 86.6865 4.19991Z" fill="black"/>
<path d="M90.2097 4.04501H90.6958C91.0219 4.04501 91.2579 3.98291 91.4049 3.86008C91.5507 3.73749 91.6248 3.55554 91.6248 3.3131C91.6248 3.06768 91.5455 2.891 91.3868 2.78468C91.2285 2.67698 90.9907 2.62427 90.6728 2.62427H90.2097V4.045V4.04501ZM90.2097 4.63323V6.3695H89.5088V2.02344H90.7187C91.2716 2.02344 91.6806 2.1277 91.9466 2.33806C92.2126 2.54796 92.3444 2.86579 92.3444 3.28972C92.3444 3.83075 92.0676 4.21641 91.5126 4.44579L92.7224 6.3695H91.9251L90.9006 4.63323H90.2095H90.2097L90.2097 4.63323Z" fill="black"/>
<path d="M126.64 8.77881C126.64 9.84229 126.376 10.6597 125.849 11.231C125.322 11.8022 124.566 12.0879 123.582 12.0879C122.597 12.0879 121.841 11.8022 121.314 11.231C120.787 10.6597 120.523 9.83936 120.523 8.77002C120.523 7.70068 120.787 6.88477 121.314 6.32227C121.844 5.75684 122.603 5.47412 123.59 5.47412C124.578 5.47412 125.332 5.7583 125.854 6.32666C126.378 6.89502 126.64 7.7124 126.64 8.77881ZM121.951 8.77881C121.951 9.49658 122.087 10.0371 122.36 10.4004C122.632 10.7637 123.04 10.9453 123.582 10.9453C124.668 10.9453 125.212 10.2231 125.212 8.77881C125.212 7.33154 124.671 6.60791 123.59 6.60791C123.048 6.60791 122.64 6.79102 122.364 7.15723C122.089 7.52051 121.951 8.06104 121.951 8.77881Z" fill="black"/>
<path d="M132.401 12H131.061V9.13037C131.061 8.77588 130.998 8.51074 130.872 8.33496C130.746 8.15625 130.545 8.06689 130.27 8.06689C129.895 8.06689 129.624 8.19287 129.457 8.44482C129.29 8.69385 129.207 9.1084 129.207 9.68848V12H127.866V7.08691H128.89L129.07 7.71533H129.145C129.294 7.47803 129.5 7.29932 129.76 7.1792C130.024 7.05615 130.323 6.99463 130.657 6.99463C131.228 6.99463 131.662 7.1499 131.958 7.46045C132.253 7.76807 132.401 8.21338 132.401 8.79639V12Z" fill="black"/>
<path d="M135.816 7.94824C135.532 7.94824 135.309 8.03906 135.148 8.2207C134.987 8.39941 134.895 8.6543 134.871 8.98535H136.752C136.746 8.6543 136.66 8.39941 136.493 8.2207C136.326 8.03906 136.1 7.94824 135.816 7.94824ZM136.005 12.0879C135.214 12.0879 134.596 11.8696 134.15 11.4331C133.705 10.9966 133.482 10.3784 133.482 9.57861C133.482 8.75537 133.688 8.11963 134.098 7.67139C134.511 7.22021 135.081 6.99463 135.807 6.99463C136.501 6.99463 137.042 7.19238 137.429 7.58789C137.815 7.9834 138.009 8.52979 138.009 9.22705V9.87744H134.84C134.855 10.2583 134.968 10.5557 135.179 10.7695C135.39 10.9834 135.686 11.0903 136.066 11.0903C136.362 11.0903 136.642 11.0596 136.906 10.998C137.169 10.9365 137.445 10.8384 137.732 10.7036V11.7407C137.498 11.8579 137.247 11.9443 136.98 12C136.714 12.0586 136.389 12.0879 136.005 12.0879Z" fill="black"/>
<path d="M138.664 10.1367V9.03809H141.023V10.1367H138.664Z" fill="black"/>
<path d="M143.994 12.0879C142.465 12.0879 141.7 11.2485 141.7 9.56982C141.7 8.73486 141.908 8.09766 142.324 7.6582C142.74 7.21582 143.336 6.99463 144.113 6.99463C144.681 6.99463 145.191 7.10596 145.642 7.32861L145.247 8.36572C145.036 8.28076 144.839 8.21191 144.658 8.15918C144.476 8.10352 144.294 8.07568 144.113 8.07568C143.416 8.07568 143.067 8.5708 143.067 9.56104C143.067 10.522 143.416 11.0024 144.113 11.0024C144.371 11.0024 144.609 10.9688 144.829 10.9014C145.049 10.8311 145.269 10.7227 145.488 10.5762V11.7231C145.271 11.8608 145.052 11.9561 144.829 12.0088C144.609 12.0615 144.331 12.0879 143.994 12.0879Z" fill="black"/>
<path d="M147.971 12H146.631V5.16211H147.971V12Z" fill="black"/>
<path d="M149.325 5.81689C149.325 5.38037 149.568 5.16211 150.054 5.16211C150.541 5.16211 150.784 5.38037 150.784 5.81689C150.784 6.0249 150.722 6.1875 150.599 6.30469C150.479 6.41895 150.297 6.47607 150.054 6.47607C149.568 6.47607 149.325 6.25635 149.325 5.81689ZM150.722 12H149.382V7.08691H150.722V12Z" fill="black"/>
<path d="M154.128 12.0879C152.599 12.0879 151.834 11.2485 151.834 9.56982C151.834 8.73486 152.042 8.09766 152.458 7.6582C152.874 7.21582 153.47 6.99463 154.247 6.99463C154.815 6.99463 155.325 7.10596 155.776 7.32861L155.38 8.36572C155.169 8.28076 154.973 8.21191 154.792 8.15918C154.61 8.10352 154.428 8.07568 154.247 8.07568C153.549 8.07568 153.201 8.5708 153.201 9.56104C153.201 10.522 153.549 11.0024 154.247 11.0024C154.504 11.0024 154.743 10.9688 154.963 10.9014C155.183 10.8311 155.402 10.7227 155.622 10.5762V11.7231C155.405 11.8608 155.186 11.9561 154.963 12.0088C154.743 12.0615 154.465 12.0879 154.128 12.0879Z" fill="black"/>
<path d="M158.052 9.32812L158.637 8.58105L160.012 7.08691H161.524L159.573 9.21826L161.643 12H160.096L158.681 10.0093L158.105 10.4707V12H156.765V5.16211H158.105V8.21191L158.035 9.32812H158.052Z" fill="black"/>
<path d="M124.742 22L124.364 20.2817L123.854 18.1108H123.823L122.927 22H121.485L120.088 17.0869H121.424L121.991 19.2622C122.082 19.6519 122.174 20.1895 122.268 20.875H122.294C122.306 20.6523 122.357 20.2993 122.448 19.8159L122.518 19.4424L123.125 17.0869H124.601L125.177 19.4424C125.188 19.5068 125.206 19.6021 125.229 19.728C125.256 19.854 125.281 19.9888 125.304 20.1323C125.328 20.2729 125.348 20.4121 125.366 20.5498C125.386 20.6846 125.398 20.793 125.401 20.875H125.427C125.454 20.6641 125.5 20.3755 125.568 20.0093C125.635 19.6401 125.684 19.3911 125.713 19.2622L126.302 17.0869H127.616L126.201 22H124.742Z" fill="black"/>
<path d="M130.446 17.9482C130.162 17.9482 129.939 18.0391 129.778 18.2207C129.617 18.3994 129.524 18.6543 129.501 18.9854H131.382C131.376 18.6543 131.29 18.3994 131.123 18.2207C130.956 18.0391 130.73 17.9482 130.446 17.9482ZM130.635 22.0879C129.844 22.0879 129.226 21.8696 128.78 21.4331C128.335 20.9966 128.112 20.3784 128.112 19.5786C128.112 18.7554 128.317 18.1196 128.728 17.6714C129.141 17.2202 129.71 16.9946 130.437 16.9946C131.131 16.9946 131.672 17.1924 132.059 17.5879C132.445 17.9834 132.639 18.5298 132.639 19.2271V19.8774H129.47C129.485 20.2583 129.598 20.5557 129.809 20.7695C130.02 20.9834 130.315 21.0903 130.696 21.0903C130.992 21.0903 131.272 21.0596 131.536 20.998C131.799 20.9365 132.075 20.8384 132.362 20.7036V21.7407C132.127 21.8579 131.877 21.9443 131.61 22C131.344 22.0586 131.019 22.0879 130.635 22.0879Z" fill="black"/>
<path d="M136.462 16.9946C137.042 16.9946 137.496 17.2217 137.824 17.6758C138.152 18.127 138.316 18.7466 138.316 19.5347C138.316 20.3462 138.146 20.9746 137.807 21.4199C137.47 21.8652 137.01 22.0879 136.427 22.0879C135.85 22.0879 135.397 21.8784 135.069 21.4595H134.977L134.752 22H133.729V15.1621H135.069V16.7529C135.069 16.9551 135.051 17.2788 135.016 17.7241H135.069C135.382 17.2378 135.847 16.9946 136.462 16.9946ZM136.031 18.0669C135.7 18.0669 135.458 18.1694 135.306 18.3745C135.154 18.5767 135.075 18.9121 135.069 19.3809V19.5259C135.069 20.0532 135.146 20.4312 135.302 20.6597C135.46 20.8882 135.709 21.0024 136.049 21.0024C136.324 21.0024 136.542 20.8765 136.704 20.6245C136.868 20.3696 136.95 20.0005 136.95 19.5171C136.95 19.0337 136.868 18.6719 136.704 18.4316C136.54 18.1885 136.315 18.0669 136.031 18.0669Z" fill="black"/>
<path d="M142.852 20.541C142.852 21.0449 142.676 21.4287 142.324 21.6924C141.976 21.9561 141.453 22.0879 140.755 22.0879C140.398 22.0879 140.093 22.063 139.841 22.0132C139.589 21.9663 139.354 21.896 139.134 21.8022V20.6948C139.383 20.812 139.663 20.9102 139.973 20.9893C140.287 21.0684 140.562 21.1079 140.799 21.1079C141.286 21.1079 141.529 20.9673 141.529 20.686C141.529 20.5806 141.497 20.4956 141.432 20.4312C141.368 20.3638 141.256 20.2891 141.098 20.207C140.94 20.1221 140.729 20.0239 140.465 19.9126C140.087 19.7544 139.809 19.6079 139.63 19.4731C139.455 19.3384 139.326 19.1846 139.244 19.0117C139.165 18.8359 139.125 18.6206 139.125 18.3657C139.125 17.9292 139.293 17.5923 139.63 17.355C139.97 17.1147 140.451 16.9946 141.072 16.9946C141.664 16.9946 142.239 17.1235 142.799 17.3813L142.395 18.3481C142.148 18.2427 141.918 18.1562 141.705 18.0889C141.491 18.0215 141.272 17.9878 141.05 17.9878C140.654 17.9878 140.457 18.0947 140.457 18.3086C140.457 18.4287 140.52 18.5327 140.646 18.6206C140.774 18.7085 141.054 18.8389 141.485 19.0117C141.869 19.167 142.15 19.312 142.329 19.4468C142.507 19.5815 142.639 19.7368 142.724 19.9126C142.809 20.0884 142.852 20.2979 142.852 20.541Z" fill="black"/>
<path d="M143.84 15.8169C143.84 15.3804 144.083 15.1621 144.57 15.1621C145.056 15.1621 145.299 15.3804 145.299 15.8169C145.299 16.0249 145.238 16.1875 145.115 16.3047C144.995 16.4189 144.813 16.4761 144.57 16.4761C144.083 16.4761 143.84 16.2563 143.84 15.8169ZM145.238 22H143.897V17.0869H145.238V22Z" fill="black"/>
<path d="M148.718 21.02C148.953 21.02 149.234 20.9688 149.562 20.8662V21.8638C149.228 22.0132 148.818 22.0879 148.332 22.0879C147.795 22.0879 147.404 21.9531 147.158 21.6836C146.915 21.4111 146.793 21.0039 146.793 20.4619V18.0933H146.152V17.5264L146.89 17.0781L147.277 16.041H148.134V17.0869H149.509V18.0933H148.134V20.4619C148.134 20.6523 148.187 20.793 148.292 20.8838C148.4 20.9746 148.542 21.02 148.718 21.02Z" fill="black"/>
<path d="M152.594 17.9482C152.31 17.9482 152.087 18.0391 151.926 18.2207C151.765 18.3994 151.673 18.6543 151.649 18.9854H153.53C153.524 18.6543 153.438 18.3994 153.271 18.2207C153.104 18.0391 152.878 17.9482 152.594 17.9482ZM152.783 22.0879C151.992 22.0879 151.374 21.8696 150.929 21.4331C150.483 20.9966 150.261 20.3784 150.261 19.5786C150.261 18.7554 150.466 18.1196 150.876 17.6714C151.289 17.2202 151.859 16.9946 152.585 16.9946C153.28 16.9946 153.82 17.1924 154.207 17.5879C154.594 17.9834 154.787 18.5298 154.787 19.2271V19.8774H151.619C151.633 20.2583 151.746 20.5557 151.957 20.7695C152.168 20.9834 152.464 21.0903 152.845 21.0903C153.141 21.0903 153.42 21.0596 153.684 20.998C153.948 20.9365 154.223 20.8384 154.51 20.7036V21.7407C154.276 21.8579 154.025 21.9443 153.759 22C153.492 22.0586 153.167 22.0879 152.783 22.0879Z" fill="black"/>
<path d="M161.643 20.541C161.643 21.0449 161.467 21.4287 161.115 21.6924C160.767 21.9561 160.244 22.0879 159.546 22.0879C159.189 22.0879 158.884 22.063 158.632 22.0132C158.38 21.9663 158.145 21.896 157.925 21.8022V20.6948C158.174 20.812 158.454 20.9102 158.764 20.9893C159.078 21.0684 159.353 21.1079 159.59 21.1079C160.077 21.1079 160.32 20.9673 160.32 20.686C160.32 20.5806 160.288 20.4956 160.223 20.4312C160.159 20.3638 160.047 20.2891 159.889 20.207C159.731 20.1221 159.52 20.0239 159.256 19.9126C158.878 19.7544 158.6 19.6079 158.421 19.4731C158.246 19.3384 158.117 19.1846 158.035 19.0117C157.956 18.8359 157.916 18.6206 157.916 18.3657C157.916 17.9292 158.084 17.5923 158.421 17.355C158.761 17.1147 159.242 16.9946 159.863 16.9946C160.455 16.9946 161.03 17.1235 161.59 17.3813L161.186 18.3481C160.939 18.2427 160.709 18.1562 160.496 18.0889C160.282 18.0215 160.063 17.9878 159.841 17.9878C159.445 17.9878 159.248 18.0947 159.248 18.3086C159.248 18.4287 159.311 18.5327 159.437 18.6206C159.565 18.7085 159.845 18.8389 160.276 19.0117C160.66 19.167 160.941 19.312 161.12 19.4468C161.298 19.5815 161.43 19.7368 161.515 19.9126C161.6 20.0884 161.643 20.2979 161.643 20.541Z" fill="black"/>
<path d="M164.723 17.9482C164.439 17.9482 164.216 18.0391 164.055 18.2207C163.894 18.3994 163.802 18.6543 163.778 18.9854H165.659C165.653 18.6543 165.567 18.3994 165.4 18.2207C165.233 18.0391 165.007 17.9482 164.723 17.9482ZM164.912 22.0879C164.121 22.0879 163.503 21.8696 163.058 21.4331C162.612 20.9966 162.39 20.3784 162.39 19.5786C162.39 18.7554 162.595 18.1196 163.005 17.6714C163.418 17.2202 163.988 16.9946 164.714 16.9946C165.409 16.9946 165.949 17.1924 166.336 17.5879C166.723 17.9834 166.916 18.5298 166.916 19.2271V19.8774H163.748C163.762 20.2583 163.875 20.5557 164.086 20.7695C164.297 20.9834 164.593 21.0903 164.974 21.0903C165.27 21.0903 165.549 21.0596 165.813 20.998C166.077 20.9365 166.352 20.8384 166.639 20.7036V21.7407C166.405 21.8579 166.154 21.9443 165.888 22C165.621 22.0586 165.296 22.0879 164.912 22.0879Z" fill="black"/>
<path d="M170.001 22.0879C168.472 22.0879 167.707 21.2485 167.707 19.5698C167.707 18.7349 167.915 18.0977 168.331 17.6582C168.747 17.2158 169.343 16.9946 170.12 16.9946C170.688 16.9946 171.198 17.106 171.649 17.3286L171.253 18.3657C171.042 18.2808 170.846 18.2119 170.665 18.1592C170.483 18.1035 170.301 18.0757 170.12 18.0757C169.422 18.0757 169.074 18.5708 169.074 19.561C169.074 20.522 169.422 21.0024 170.12 21.0024C170.377 21.0024 170.616 20.9688 170.836 20.9014C171.056 20.8311 171.275 20.7227 171.495 20.5762V21.7231C171.278 21.8608 171.059 21.9561 170.836 22.0088C170.616 22.0615 170.338 22.0879 170.001 22.0879Z" fill="black"/>
<path d="M176.118 22L175.938 21.3716H175.868C175.724 21.6001 175.521 21.7773 175.257 21.9033C174.993 22.0264 174.693 22.0879 174.356 22.0879C173.779 22.0879 173.344 21.9341 173.051 21.6265C172.758 21.3159 172.611 20.8706 172.611 20.2905V17.0869H173.952V19.9565C173.952 20.311 174.015 20.5776 174.141 20.7563C174.267 20.9321 174.467 21.02 174.743 21.02C175.118 21.02 175.389 20.8955 175.556 20.6465C175.723 20.3945 175.806 19.9785 175.806 19.3984V17.0869H177.146V22H176.118Z" fill="black"/>
<path d="M181.295 16.9946C181.477 16.9946 181.627 17.0078 181.748 17.0342L181.646 18.291C181.538 18.2617 181.406 18.2471 181.251 18.2471C180.823 18.2471 180.489 18.3569 180.249 18.5767C180.012 18.7964 179.893 19.104 179.893 19.4995V22H178.553V17.0869H179.568L179.766 17.9131H179.832C179.984 17.6377 180.189 17.4165 180.447 17.2495C180.708 17.0796 180.99 16.9946 181.295 16.9946Z" fill="black"/>
<path d="M182.583 15.8169C182.583 15.3804 182.826 15.1621 183.312 15.1621C183.798 15.1621 184.042 15.3804 184.042 15.8169C184.042 16.0249 183.98 16.1875 183.857 16.3047C183.737 16.4189 183.555 16.4761 183.312 16.4761C182.826 16.4761 182.583 16.2563 182.583 15.8169ZM183.98 22H182.64V17.0869H183.98V22Z" fill="black"/>
<path d="M187.46 21.02C187.695 21.02 187.976 20.9688 188.304 20.8662V21.8638C187.97 22.0132 187.56 22.0879 187.074 22.0879C186.538 22.0879 186.146 21.9531 185.9 21.6836C185.657 21.4111 185.536 21.0039 185.536 20.4619V18.0933H184.894V17.5264L185.632 17.0781L186.019 16.041H186.876V17.0869H188.251V18.0933H186.876V20.4619C186.876 20.6523 186.929 20.793 187.034 20.8838C187.143 20.9746 187.285 21.02 187.46 21.02Z" fill="black"/>
<path d="M188.599 17.0869H190.066L190.994 19.8511C191.073 20.0913 191.127 20.3755 191.156 20.7036H191.183C191.215 20.4019 191.278 20.1177 191.372 19.8511L192.281 17.0869H193.718L191.64 22.6284C191.449 23.1411 191.177 23.5249 190.822 23.7798C190.471 24.0347 190.059 24.1621 189.587 24.1621C189.356 24.1621 189.129 24.1372 188.906 24.0874V23.0239C189.067 23.062 189.243 23.0811 189.434 23.0811C189.671 23.0811 189.877 23.0078 190.053 22.8613C190.232 22.7178 190.371 22.4995 190.471 22.2065L190.55 21.9648L188.599 17.0869Z" fill="black"/>
<line x1="106.5" y1="6" x2="106.5" y2="22" stroke="black"/>
</svg>
